<?xml version="1.0" encoding="UTF-8"?><svg id="Layer_2" xmlns="http://www.w3.org/2000/svg" viewBox="0 0 985.53 530.51"><defs><style>.cls-1{fill:#f9f9f9;stroke-width:0px;}</style></defs><g id="Layer_1-2"><path class="cls-1" d="M492.66,0L0,265.2l492.86,265.31,492.66-265.2L492.66,0ZM284.21,381.14c-28.38-14.15-56.76-28.3-85.14-42.45v-147.22c10.21-5.09,20.42-10.18,30.63-15.27v140.69c18.17,5.28,36.34,10.56,54.51,15.84v48.41ZM383.73,168.52c-17.6,5.11-35.19,10.23-52.79,15.34v55.34c15.29-1.42,30.58-2.83,45.86-4.25v63.96c-15.29-1.59-30.58-3.18-45.86-4.77v52.16c17.6,5.11,35.19,10.23,52.79,15.34v69.11c-27.81-13.86-55.61-27.72-83.42-41.59v-248.16c27.81-13.86,55.61-27.72,83.42-41.59v69.11ZM464.38,470.96c-9.17-4.57-18.34-9.14-27.52-13.72-12.91-121.11-26.9-242.11-43.09-362.83,10.9-5.44,21.81-10.87,32.71-16.31,8.59,84.08,16.61,168.21,24.23,252.39,8.55-92.14,16.57-184.32,24.23-276.54,13.62-6.79,18.41-10.58,32.71-3.45-14.82,140.12-27.78,280.41-43.26,420.46ZM553.51,456.99c-10.21,5.09-20.42,10.18-30.63,15.27V58.09c10.21,5.09,20.42,10.18,30.63,15.27v383.62ZM681.58,393.14c-7.85,3.91-15.69,7.82-23.54,11.73-19.09-51.67-34.23-104.73-48.29-157.95v182.02c-10.21,5.09-20.42,10.18-30.63,15.27V86.13c7.9,3.94,15.81,7.88,23.71,11.82,14.23,60.86,29.74,121.39,48.11,181.14V121.94c10.21,5.09,20.42,10.18,30.63,15.27v255.93ZM790.61,222.27c-17.59-5.11-35.19-10.22-52.78-15.34v39.68c15.29,1.42,30.57,2.83,45.86,4.25v30.39c-15.29,1.59-30.57,3.18-45.86,4.77v37.4c17.59-5.11,35.19-10.22,52.78-15.34v30.71c-27.8,13.86-55.61,27.72-83.41,41.58v-230.39c27.8,13.86,55.61,27.72,83.41,41.58v30.71Z"/></g></svg>